{"accessors":[{"bufferView":0,"componentType":5126,"count":36,"max":[57.31521987915039,150.0,60.86406326293945],"min":[-57.31521987915039,0.0,-60.86406326293945],"type":"VEC3"},{"bufferView":1,"componentType":5126,"count":36,"type":"VEC3"},{"bufferView":2,"componentType":5125,"count":60,"type":"SCALAR"}],"asset":{"generator":"Luxion KeyShot","version":"2.0"},"bufferViews":[{"buffer":0,"byteLength":432,"byteOffset":0,"byteStride":12},{"buffer":0,"byteLength":432,"byteOffset":432,"byteStride":12},{"buffer":0,"byteLength":240,"byteOffset":864}],"buffers":[{"byteLength":1104,"uri":"./cone_resources/cone.bin"}],"cameras":[{"name":"active","perspective":{"aspectRatio":1.0,"yfov":0.6911154697478635,"zfar":322.0171813964844,"znear":121.95021057128906},"type":"perspective"}],"materials":[{"doubleSided":true,"name":"cone:color:202:209:238","pbrMetallicRoughness":{"baseColorFactor":[0.9058821201324463,0.7803925275802612,0.12156728655099869,1.0],"metallicFactor":1.0,"roughnessFactor":0.0}}],"meshes":[{"name":"cone-mesh","primitives":[{"attributes":{"NORMAL":1,"POSITION":0},"indices":2,"material":0,"mode":4}]}],"nodes":[{"camera":0,"matrix":[0.0007660444257125132,-1.7316120981547556e-10,0.0006427876168189162,0.0,0.00016636580437561752,0.0009659258220984633,-0.0001982667781326273,0.0,-0.0006208851337432861,0.000258819043636322,0.0007399421334266663,0.0,-0.1378263702392578,0.13245361328125,0.16425508117675783,1.0],"name":"active"},{"mesh":0,"name":"cone"},{"children":[1],"name":"cone"},{"children":[2],"name":"cone"},{"children":[3],"name":"Default"},{"children":[4],"matrix":[0.001,0.0,0.0,0.0,0.0,0.001,0.0,0.0,0.0,0.0,0.001,0.0,0.0,0.0,0.0,1.0],"name":"lux_root"}],"scenes":[{"nodes":[0,5]}]}   