{"accessors" : [{"bufferView" : 0, "byteOffset" : 0, "componentType" : 5123, "count" : 60, "type" : "SCALAR", "max" : [56], "min" : [0]}, {"bufferView" : 1, "byteOffset" : 0, "componentType" : 5126, "count" : 57, "type" : "VEC3", "max" : [57.31521987915039, 150, 60.86406326293945], "min" : [-57.31521987915039, 0, -60.86406326293945], "name" : "POSITION"}, {"bufferView" : 1, "byteOffset" : 12, "componentType" : 5126, "count" : 57, "type" : "VEC3", "max" : [0.9348779916763306, 1.0000044107437134, 0.8803675174713135], "min" : [-0.9348779916763306, -1.0000044107437134, -0.8803675174713135], "name" : "NORMAL"}, {"bufferView" : 1, "byteOffset" : 24, "componentType" : 5126, "count" : 57, "type" : "VEC2", "max" : [156.9834747314453, 61.48249053955078], "min" : [-156.9834747314453, -158.64309692382812], "name" : "TEXCOORD_0"}], "asset" : {"generator" : "Aspose.3D 23.9.0", "version" : "2.0"}, "buffers" : [{"uri" : "data:application/octet-stream;base64,", "byteLength" : 2048}], "bufferViews" : [{"buffer" : 0, "byteOffset" : 0, "byteLength" : 120, "target" : 34963}, {"buffer" : 0, "byteOffset" : 124, "byteLength" : 1920, "byteStride" : 32, "target" : 34962}], "cameras" : [{"perspective" : {"aspectRatio" : 1.33333333333333, "yfov" : 0.6911154697478636, "zfar" : 600000, "znear" : 0.001}, "type" : "perspective", "name" : "Active Camera"}], "materials" : [{"name" : "cone:color:202:209:238", "pbrMetallicRoughness" : {"baseColorFactor" : [0.792156994342804, 0.8196079730987549, 0.9333329796791077, 1], "metallicFactor" : 0, "roughnessFactor" : 0}, "emissiveFactor" : [0, 0, 0], "alphaMode" : "OPAQUE", "doubleSided" : false}], "meshes" : [{"primitives" : [{"attributes" : {"POSITION" : 1, "NORMAL" : 2, "TEXCOORD_0" : 3}, "indices" : 0, "material" : 0, "mode" : 4}], "name" : "mesh"}], "nodes" : [{"camera" : 0, "matrix" : [0.6208851314235833, -0.2588190426693424, -0.7399421306621518, 0, 0.1663658052096734, 0.965925826941021, -0.1982667791266149, 0, 0.7660444324150244, -1.731612113697878E-07, 0.642787622442991, 0, -187.44386291503906, 153.1369171142578, 223.3869171142578, 1], "name" : "Active Camera"}, {"mesh" : 0, "name" : "cone"}, {"children" : [1], "name" : "cone"}, {"children" : [2], "name" : "cone"}, {"children" : [3], "name" : "Default"}], "scene" : 0, "scenes" : [{"nodes" : [0, 4]}]}